<svg width="195" height="195" viewBox="0 0 195 195" fill="none" xmlns="http://www.w3.org/2000/svg">
<g clip-path="url(#clip0_31_502)">
<rect width="195" height="195" fill="white"/>
<path d="M500 209H-210.343C-220.01 200.794 -254.546 156.532 -230.843 108.129C-198.843 42.7817 -65 -31.5173 107 62.4754C346.8 193.519 382.843 162.003 500 136.939V209Z" fill="#C95ECC"/>
<path d="M-322 211.602H388.343C398.01 202.436 432.546 185.174 408.843 131.102C376.843 58.1021 263.5 -5.58178 71 80.1021C-18.5 119.94 -188.5 211.602 -322 64.9183V211.602Z" fill="#FD9A65"/>
<path d="M-127 200.602H583.343C593.01 191.436 627.546 174.174 603.843 120.102C571.843 47.1021 458.5 -16.5818 266 69.1021C176.5 108.94 6.5 200.602 -127 53.9183V200.602Z" fill="#F66488"/>
<path d="M-86 256H416.5C424.833 235.5 442.991 107.997 393.524 136.316C124.524 290.316 109.5 82 -86 82V256Z" fill="#9F3A40"/>
</g>
<defs>
<clipPath id="clip0_31_502">
<rect width="195" height="195" fill="white"/>
</clipPath>
</defs>
</svg>
